<?xml version="1.0" encoding="utf-8"?>
<!-- Generator: Adobe Illustrator 16.0.0, SVG Export Plug-In . SVG Version: 6.00 Build 0)  -->
<!DOCTYPE svg PUBLIC "-//W3C//DTD SVG 1.1//EN" "http://www.w3.org/Graphics/SVG/1.1/DTD/svg11.dtd">
<svg version="1.1" id="Layer_1" xmlns="http://www.w3.org/2000/svg" xmlns:xlink="http://www.w3.org/1999/xlink" x="0px" y="0px"
	 width="123px" height="97px" viewBox="0 0 123 97" enable-background="new 0 0 123 97" xml:space="preserve">
<linearGradient id="SVGID_1_" gradientUnits="userSpaceOnUse" x1="15.1289" y1="1640" x2="15.1288" y2="740.8912" gradientTransform="matrix(1 0 0 1 468 -694)">
	<stop  offset="0" style="stop-color:#041724"/>
	<stop  offset="1" style="stop-color:#000000"/>
</linearGradient>
<rect x="123.129" display="none" fill="url(#SVGID_1_)" width="720" height="1001"/>
<path display="none" fill="#31ABFF" fill-opacity="0.29" stroke="#31ABFF" stroke-width="0.8902" stroke-miterlimit="10" stroke-opacity="0.64" d="
	M268.629,643.039V738.5h-122v-80.76C186.629,651.722,227.629,646.832,268.629,643.039z"/>
<g>
	<path fill-opacity="0.29" stroke="#B2F0FF" stroke-width="0.8472" stroke-miterlimit="10" stroke-opacity="0.64" d="M122.5,0.77
		V96.23H0.5v-80.76C40.5,9.452,81.5,4.563,122.5,0.77z"/>
	<g>
		<g>
			<g>
				<circle fill="#B2F0FF" cx="90.862" cy="34.189" r="8.235"/>
				<path fill="#B2F0FF" d="M93.139,45.619l-1.035-0.568c-2.859-1.577-6.457-0.536-8.033,2.321l-6.645,12.055l-13.158-4.315
					c-3.01-0.986-6.571,0.18-9.143,3.18l0.004,0.004c-0.449,0.408-0.876,0.873-1.262,1.396L42.975,74.434
					c-1.681,2.271-1.607,5.14,0.098,6.484l0.617,0.487c1.707,1.351,4.513,0.756,6.334-1.401l11.505-13.621l15.161,5.821
					c1.32,0.509,2.729,0.665,4.067,0.524c2.313,0.265,4.662-0.854,5.854-3.02l8.852-16.057
					C97.04,50.793,95.999,47.196,93.139,45.619z"/>
			</g>
			<polygon fill="#B2F0FF" points="19.219,39.73 33.479,57.43 47.739,39.73 41,39.73 41,23.73 26,23.73 26,39.73 			"/>
		</g>
	</g>
</g>
<linearGradient id="SVGID_2_" gradientUnits="userSpaceOnUse" x1="-260.3716" y1="1337.627" x2="-260.3716" y2="1431.4371" gradientTransform="matrix(1 0 0 1 468 -694)">
	<stop  offset="0.5092" style="stop-color:#31ABFF;stop-opacity:0"/>
	<stop  offset="0.9018" style="stop-color:#31ABFF"/>
	<stop  offset="1" style="stop-color:#63E6FF"/>
</linearGradient>
<path display="none" fill="url(#SVGID_2_)" stroke="#31ABFF" stroke-miterlimit="10" d="M268.629,643.039V738.5h-122v-80.76
	C186.629,651.722,227.629,646.832,268.629,643.039z"/>
<g display="none">
	<g display="inline">
		<g>
			<circle fill="#FFFFFF" cx="236.991" cy="676.459" r="8.235"/>
			<path fill="#FFFFFF" d="M239.268,687.889l-1.035-0.568c-2.859-1.577-6.457-0.536-8.033,2.321l-6.645,12.055l-13.158-4.315
				c-3.01-0.986-6.571,0.18-9.143,3.18l0.004,0.004c-0.449,0.408-0.876,0.873-1.262,1.396l-10.893,14.743
				c-1.681,2.271-1.607,5.14,0.098,6.484l0.617,0.487c1.707,1.351,4.513,0.756,6.334-1.401l11.505-13.621l15.161,5.821
				c1.32,0.509,2.729,0.665,4.067,0.524c2.313,0.265,4.662-0.854,5.854-3.02l8.852-16.057
				C243.169,693.063,242.128,689.466,239.268,687.889z"/>
		</g>
		<polygon fill="#FFFFFF" points="165.348,682 179.607,699.699 193.868,682 187.129,682 187.129,666 172.129,666 172.129,682 		"/>
	</g>
</g>
<g display="none">
	<g display="inline">
		<g display="none">
			<circle display="inline" fill="#31ABFF" cx="236.991" cy="676.459" r="8.235"/>
			<path display="inline" fill="#31ABFF" d="M239.268,687.889l-1.035-0.568c-2.859-1.577-6.457-0.536-8.033,2.321l-6.645,12.055
				l-13.158-4.315c-3.01-0.986-6.571,0.18-9.143,3.18l0.004,0.004c-0.449,0.408-0.876,0.873-1.262,1.396l-10.893,14.743
				c-1.681,2.271-1.607,5.14,0.098,6.484l0.617,0.487c1.707,1.351,4.513,0.756,6.334-1.401l11.505-13.621l15.161,5.821
				c1.32,0.509,2.729,0.665,4.067,0.524c2.313,0.265,4.662-0.854,5.854-3.02l8.852-16.057
				C243.169,693.063,242.128,689.466,239.268,687.889z"/>
		</g>
		<polygon display="none" fill="#31ABFF" points="165.348,682 179.607,699.699 193.868,682 187.129,682 187.129,666 172.129,666 
			172.129,682 		"/>
	</g>
</g>
<path display="none" fill="none" stroke="#00507F" stroke-miterlimit="10" d="M968.129,664.752
	C828.971,627.465,638.581,610,484.129,610s-344.841,17.465-484,54.752"/>
</svg>
