<?xml version="1.0" encoding="utf-8"?>
<!-- Generator: Adobe Illustrator 15.1.0, SVG Export Plug-In  -->
<!DOCTYPE svg PUBLIC "-//W3C//DTD SVG 1.1//EN" "http://www.w3.org/Graphics/SVG/1.1/DTD/svg11.dtd" [
	<!ENTITY ns_flows "http://ns.adobe.com/Flows/1.0/">
]>
<svg version="1.1"
	 xmlns="http://www.w3.org/2000/svg" xmlns:xlink="http://www.w3.org/1999/xlink" xmlns:a="http://ns.adobe.com/AdobeSVGViewerExtensions/3.0/"
	 x="0px" y="0px" width="303px" height="94px" viewBox="362.629 633 303 94"
	 overflow="visible" enable-background="new 362.629 633 303 94" xml:space="preserve">
<defs>
</defs>
<linearGradient id="SVGID_3_" gradientUnits="userSpaceOnUse" x1="483.1299" y1="946" x2="483.1299" y2="46.8912">
	<stop  offset="0" style="stop-color:#041724"/>
	<stop  offset="1" style="stop-color:#000000"/>
</linearGradient>
<rect x="123.129" display="none" fill="url(#SVGID_3_)" width="720" height="1001"/>
<g display="none">
	<defs>
		<rect id="SVGID_1_" x="275.129" y="346" width="158" height="232"/>
	</defs>
	<clipPath id="SVGID_4_" display="inline">
		<use xlink:href="#SVGID_1_"  display="none" overflow="visible"/>
	</clipPath>
	<g clip-path="url(#SVGID_4_)">
		<text transform="matrix(1 0 0 1 283.4937 784.9795)" fill="#FFFFFF" font-family="'MyriadPro-Regular'" font-size="93.6032">20°</text>
		<text transform="matrix(1 0 0 1 283.4937 888.7236)" fill="#FFFFFF" font-family="'MyriadPro-Regular'" font-size="93.6032">21°</text>
		<text transform="matrix(1 0 0 1 283.4937 689.0361)" fill="#FFFFFF" font-family="'MyriadPro-Regular'" font-size="93.6032">19°</text>
		<text transform="matrix(1 0 0 1 283.4937 591.3809)" fill="#FFFFFF" font-family="'MyriadPro-Regular'" font-size="93.6032">18°</text>
		<text transform="matrix(1 0 0 1 283.4937 496.998)" fill="#FFFFFF" font-family="'MyriadPro-Regular'" font-size="93.6032">17°</text>
		<text transform="matrix(1 0 0 1 283.4937 403.3945)" fill="#FFFFFF" font-family="'MyriadPro-Regular'" font-size="93.6032">16°</text>
	</g>
</g>
<circle display="none" fill="#31ABFF" stroke="#31ABFF" stroke-width="0.5936" stroke-miterlimit="10" cx="494.93" cy="726.5" r="6.141"/>
<circle display="none" fill="#31ABFF" fill-opacity="0.45" cx="494.93" cy="726.5" r="10.912"/>
<path display="none" fill="none" stroke="#00507F" stroke-miterlimit="10" d="M968.129,664.752
	C828.971,627.465,638.581,610,484.129,610s-344.841,17.465-484,54.752"/>
<line display="none" fill="#31ABFF" stroke="#31ABFF" stroke-miterlimit="10" x1="667.129" y1="719.5" x2="363.129" y2="719.5"/>
<line fill="#31ABFF" stroke="#31ABFF" stroke-width="3" stroke-miterlimit="10" x1="667.129" y1="726.5" x2="363.129" y2="726.5"/>
<path fill="#31ABFF" d="M362.629,703.5h29v-68.552c-9.608,0.396-19.279,0.849-29,1.366V703.5z"/>
<path fill="#31ABFF" d="M401.629,703.5h29v-69.834c-9.582,0.234-19.253,0.529-29,0.89V703.5z"/>
<path fill="#31ABFF" d="M440.629,703.5h28v-70.443c-9.225,0.067-18.564,0.196-28,0.386V703.5z"/>
<path fill="#31ABFF" d="M479.629,633.008V703.5h29v-70.351c-8.34-0.098-16.598-0.149-24.75-0.149
	C482.468,633,481.047,633.005,479.629,633.008z"/>
<path fill="#31ABFF" d="M519.629,703.5h28v-69.553c-9.42-0.273-18.76-0.488-28-0.643V703.5z"/>
<path fill="#31ABFF" d="M558.629,703.5h29v-68.051c-9.73-0.447-19.404-0.835-29-1.159V703.5z"/>
<path fill="#31ABFF" d="M597.629,703.5h28v-66.005c-9.371-0.578-18.71-1.103-28-1.567V703.5z"/>
<path fill="#31ABFF" d="M636.629,703.5h29v-63.205c-9.684-0.759-19.356-1.46-29-2.099V703.5z"/>
</svg>
