<?xml version="1.0" encoding="utf-8"?>
<!-- Generator: Adobe Illustrator 16.0.0, SVG Export Plug-In . SVG Version: 6.00 Build 0)  -->
<!DOCTYPE svg PUBLIC "-//W3C//DTD SVG 1.1//EN" "http://www.w3.org/Graphics/SVG/1.1/DTD/svg11.dtd">
<svg version="1.1" id="Layer_1" xmlns="http://www.w3.org/2000/svg" xmlns:xlink="http://www.w3.org/1999/xlink" x="0px" y="0px"
	 width="416px" height="81px" viewBox="0 0 416 81" enable-background="new 0 0 416 81" xml:space="preserve">
<rect x="152.053" y="17.5" display="none" fill="#31ABFF" fill-opacity="0.29" stroke="#31ABFF" stroke-width="0.6866" stroke-miterlimit="10" stroke-opacity="0.64" width="415.947" height="79.5"/>
<g>
	<g opacity="0.8">
		<rect x="1" y="1" width="415" height="80"/>
		<defs>
			<filter id="Adobe_OpacityMaskFilter" filterUnits="userSpaceOnUse" x="1" y="1" width="415" height="80">
				
					<feColorMatrix  type="matrix" values="-1 0 0 0 1  0 -1 0 0 1  0 0 -1 0 1  0 0 0 1 0" color-interpolation-filters="sRGB" result="source"/>
			</filter>
		</defs>
		<mask maskUnits="userSpaceOnUse" x="1" y="1" width="415" height="80" id="SVGID_1_">
			<g filter="url(#Adobe_OpacityMaskFilter)">
				<image overflow="visible" width="420" height="84" xlink:href="61DA8468.jpg"  transform="matrix(1 0 0 1 -1.5 -1)">
				</image>
			</g>
		</mask>
		<rect x="1" y="1" opacity="0.75" mask="url(#SVGID_1_)" fill="#FE9C00" width="415" height="80"/>
	</g>
	<rect x="1" y="1" fill="none" stroke="#FFFFFF" stroke-miterlimit="10" width="415" height="80"/>
</g>
<rect x="1" y="1" fill="none" stroke="#FFFFFF" stroke-miterlimit="10" width="415" height="80"/>
<path fill="none" stroke="#FFFFFF" stroke-width="6" stroke-miterlimit="10" d="M237.406,70.5h-57.737
	c-1.891,0-3.421-1.535-4.2-2.883s-0.683-3.441,0.265-5.079l28.867-50.193c0.945-1.638,2.381-2.671,3.938-2.671
	c1.557,0,2.992,0.892,3.937,2.529l28.869,49.979c0.945,1.637,1.041,4.101,0.265,5.446C240.827,68.979,239.298,70.5,237.406,70.5z"/>
<polygon fill="none" stroke="#FFFFFF" stroke-width="6" stroke-miterlimit="10" points="186.875,61.5 208.458,24.116 230.041,61.5 
	"/>
</svg>
