<?xml version="1.0" encoding="utf-8"?>
<!-- Generator: Adobe Illustrator 15.1.0, SVG Export Plug-In  -->
<!DOCTYPE svg PUBLIC "-//W3C//DTD SVG 1.1//EN" "http://www.w3.org/Graphics/SVG/1.1/DTD/svg11.dtd" [
	<!ENTITY ns_flows "http://ns.adobe.com/Flows/1.0/">
]>
<svg version="1.1"
	 xmlns="http://www.w3.org/2000/svg" xmlns:xlink="http://www.w3.org/1999/xlink" xmlns:a="http://ns.adobe.com/AdobeSVGViewerExtensions/3.0/"
	 x="0px" y="0px" width="720px" height="601px" viewBox="123.129 125.388 720 601"
	 overflow="visible" enable-background="new 123.129 125.388 720 601" xml:space="preserve">
<defs>
</defs>
<linearGradient id="SVGID_4_" gradientUnits="userSpaceOnUse" x1="483.1299" y1="946" x2="483.1299" y2="46.8912">
	<stop  offset="0" style="stop-color:#041724"/>
	<stop  offset="1" style="stop-color:#000000"/>
</linearGradient>
<rect x="123.129" display="none" fill="url(#SVGID_4_)" width="720" height="1001"/>
<polygon display="none" fill="#31ABFF" fill-opacity="0.29" stroke="#FFFFFF" stroke-width="1.3481" stroke-miterlimit="10" stroke-opacity="0.64" points="
	533.991,435.516 533.991,345.813 691.556,345.813 691.556,577.48 533.991,577.48 533.991,486.998 559.732,461.257 "/>
<path display="none" fill="#31ABFF" fill-opacity="0.29" stroke="#31ABFF" stroke-width="0.8902" stroke-miterlimit="10" stroke-opacity="0.64" d="
	M268.629,643.039V738.5h-122v-80.76C186.629,651.722,227.629,646.832,268.629,643.039z"/>
<polygon display="none" fill="#31ABFF" fill-opacity="0.29" stroke="#FFFFFF" stroke-width="1.3481" stroke-miterlimit="10" stroke-opacity="0.64" points="
	433.048,435.516 433.048,345.813 275.482,345.813 275.482,577.48 433.048,577.48 433.048,486.998 407.307,461.257 "/>
<g display="none">
	<defs>
		<rect id="SVGID_3_" x="275.129" y="346" width="158" height="232"/>
	</defs>
	<clipPath id="SVGID_6_" display="inline">
		<use xlink:href="#SVGID_3_"  display="none" overflow="visible"/>
	</clipPath>
	<g clip-path="url(#SVGID_6_)">
		<text transform="matrix(1 0 0 1 283.4937 784.9795)" fill="#FFFFFF" font-family="'MyriadPro-Regular'" font-size="93.6032">20°</text>
		<text transform="matrix(1 0 0 1 283.4937 888.7236)" fill="#FFFFFF" font-family="'MyriadPro-Regular'" font-size="93.6032">21°</text>
		<text transform="matrix(1 0 0 1 283.4937 689.0361)" fill="#FFFFFF" font-family="'MyriadPro-Regular'" font-size="93.6032">19°</text>
		<text transform="matrix(1 0 0 1 283.4937 591.3809)" fill="#FFFFFF" font-family="'MyriadPro-Regular'" font-size="93.6032">18°</text>
		<text transform="matrix(1 0 0 1 283.4937 496.998)" fill="#FFFFFF" font-family="'MyriadPro-Regular'" font-size="93.6032">17°</text>
		<text transform="matrix(1 0 0 1 283.4937 403.3945)" fill="#FFFFFF" font-family="'MyriadPro-Regular'" font-size="93.6032">16°</text>
	</g>
</g>
<line display="none" fill="none" stroke="#00507F" stroke-miterlimit="10" x1="483.629" y1="98" x2="483.629" y2="610"/>
<linearGradient id="SVGID_7_" gradientUnits="userSpaceOnUse" x1="354.1294" y1="349.6602" x2="354.1294" y2="574.0174">
	<stop  offset="0" style="stop-color:#2175AD"/>
	<stop  offset="0.2822" style="stop-color:#2175AD;stop-opacity:0"/>
	<stop  offset="0.7055" style="stop-color:#2175AD;stop-opacity:0"/>
	<stop  offset="1" style="stop-color:#2175AD"/>
</linearGradient>
<polygon display="none" fill="url(#SVGID_7_)" stroke="#31ABFF" stroke-miterlimit="10" points="432.629,435.516 432.629,345.5 
	275.629,345.5 275.629,577.5 432.629,577.5 432.629,486.998 406.889,461.257 "/>
<g display="none">
	<defs>
		<rect id="SVGID_1_" x="533.129" y="346" width="158" height="232"/>
	</defs>
	<clipPath id="SVGID_9_" display="inline">
		<use xlink:href="#SVGID_1_"  display="none" overflow="visible"/>
	</clipPath>
	<g clip-path="url(#SVGID_9_)">
		<text transform="matrix(1 0 0 1 550.7231 489.4902)" fill="#FFFFFF" font-family="'MyriadPro-Regular'" font-size="93.6032">20°</text>
		<text transform="matrix(1 0 0 1 550.7231 593.2334)" fill="#FFFFFF" font-family="'MyriadPro-Regular'" font-size="93.6032">21°</text>
		<text transform="matrix(1 0 0 1 550.7231 393.5469)" fill="#FFFFFF" font-family="'MyriadPro-Regular'" font-size="93.6032">19°</text>
		<text transform="matrix(1 0 0 1 550.7231 295.8911)" fill="#FFFFFF" font-family="'MyriadPro-Regular'" font-size="93.6032">18°</text>
		<text transform="matrix(1 0 0 1 550.7231 201.5078)" fill="#FFFFFF" font-family="'MyriadPro-Regular'" font-size="93.6032">17°</text>
	</g>
</g>
<path display="none" fill="#31ABFF" fill-opacity="0.29" stroke="#31ABFF" stroke-width="0.8902" stroke-miterlimit="10" stroke-opacity="0.64" d="
	M698.129,643.039v95.783h122V657.74C780.41,651.722,739.326,646.832,698.129,643.039z"/>
<circle display="none" fill="#31ABFF" stroke="#31ABFF" stroke-width="0.5936" stroke-miterlimit="10" cx="756.627" cy="420.198" r="6.141"/>
<circle display="none" fill="#31ABFF" fill-opacity="0.45" cx="756.627" cy="420.198" r="10.912"/>
<line display="none" fill="#31ABFF" stroke="#31ABFF" stroke-width="2" stroke-miterlimit="10" x1="756.129" y1="419" x2="756.129" y2="607"/>
<circle display="none" fill="#31ABFF" stroke="#31ABFF" stroke-width="0.5936" stroke-miterlimit="10" cx="494.93" cy="726.5" r="6.141"/>
<circle display="none" fill="#31ABFF" fill-opacity="0.45" cx="494.93" cy="726.5" r="10.912"/>
<circle display="none" fill="#31ABFF" stroke="#31ABFF" stroke-width="0.5936" stroke-miterlimit="10" cx="210.631" cy="524.197" r="6.141"/>
<circle display="none" fill="#31ABFF" fill-opacity="0.45" cx="210.631" cy="524.197" r="10.912"/>
<line display="none" fill="#31ABFF" stroke="#31ABFF" stroke-width="2" stroke-miterlimit="10" x1="211.129" y1="529" x2="211.129" y2="607"/>
<path display="none" fill="#31ABFF" fill-opacity="0.29" stroke="#31ABFF" stroke-width="0.8472" stroke-miterlimit="10" stroke-opacity="0.64" d="
	M268.629,643.039V738.5h-122v-80.76C186.629,651.722,227.629,646.832,268.629,643.039z"/>
<path display="none" fill="#31ABFF" fill-opacity="0.29" stroke="#31ABFF" stroke-width="0.8902" stroke-miterlimit="10" stroke-opacity="0.64" d="
	M698.129,643.039v95.783h122V657.74C780.41,651.722,739.326,646.832,698.129,643.039z"/>
<g display="none">
	<g display="inline">
		<g display="none">
			<circle fill="#31ABFF" cx="236.991" cy="676.459" r="8.235"/>
			<path fill="#31ABFF" d="M239.268,687.889l-1.035-0.57c-2.861-1.577-6.458-0.536-8.035,2.323l-6.644,12.053l-13.158-4.315
				c-3.009-0.986-6.572,0.18-9.142,3.18l0.004,0.003c-0.45,0.409-0.876,0.873-1.262,1.395l-10.893,14.743
				c-1.679,2.271-1.607,5.14,0.098,6.486l0.618,0.487c1.706,1.349,4.512,0.756,6.334-1.402l11.504-13.622l15.161,5.823
				c1.32,0.507,2.731,0.665,4.069,0.524c2.312,0.265,4.662-0.854,5.854-3.019l8.852-16.056
				C243.169,693.063,242.128,689.466,239.268,687.889z"/>
		</g>
		<polygon display="none" fill="#31ABFF" points="165.347,682 179.608,699.699 193.868,682 187.129,682 187.129,666 172.129,666 
			172.129,682 		"/>
	</g>
</g>
<path display="none" fill="#31ABFF" d="M747.514,675.48c-0.104-2.278-0.235-5.027-0.209-7.41h-0.079
	c-0.576,2.146-1.31,4.529-2.095,6.755l-2.566,7.646h-2.487l-2.356-7.541c-0.681-2.251-1.309-4.66-1.78-6.859h-0.053
	c-0.078,2.304-0.183,5.105-0.313,7.515l-0.394,7.096h-3.011l1.178-17.648h4.242l2.305,7.097c0.628,2.068,1.178,4.163,1.623,6.127
	h0.078c0.472-1.912,1.074-4.085,1.755-6.153l2.435-7.07h4.189l1.021,17.648h-3.142L747.514,675.48z"/>
<path display="none" fill="#31ABFF" d="M757.647,677.68l-1.519,5.001h-3.325l5.656-17.648h4.11l5.734,17.648h-3.456l-1.598-5.001
	H757.647z M762.701,675.244l-1.388-4.347c-0.34-1.073-0.628-2.277-0.891-3.299h-0.052c-0.262,1.021-0.523,2.252-0.838,3.299
	l-1.361,4.347H762.701z"/>
<path display="none" fill="#31ABFF" d="M779.695,682.681l-1.911-3.509c-0.76-1.361-1.257-2.304-1.755-3.325h-0.078
	c-0.419,1.021-0.891,1.964-1.598,3.325l-1.754,3.509h-3.692l5.237-8.929l-5.027-8.72h3.691l1.912,3.64
	c0.575,1.1,0.995,1.964,1.466,2.959h0.053c0.471-1.1,0.838-1.885,1.388-2.959l1.885-3.64h3.692l-5.158,8.615l5.367,9.033H779.695z"
	/>
<path display="none" fill="#31ABFF" d="M773.577,723.187c-0.509,0-1.007-0.109-1.483-0.324c-8.057-3.664-16.873-3.663-24.926-0.001
	c-0.478,0.216-0.977,0.325-1.484,0.325c-1.702,0-3.187-1.207-3.78-3.075l-6.004-19.563c-0.773-2.435,0.854-5.537,3.557-6.764
	c13.016-5.92,27.331-5.92,40.349,0c2.702,1.227,4.329,4.329,3.552,6.775l-5.996,19.54
	C776.762,721.979,775.279,723.187,773.577,723.187z M759.629,717.658c4.595,0,9.127,1.002,13.473,2.979
	c0.756,0.343,1.592-0.218,1.926-1.266l5.996-19.54c0.37-1.165-0.507-3.04-2.23-3.822c-12.381-5.631-25.948-5.631-38.327,0
	c-1.725,0.782-2.602,2.657-2.235,3.811l6.004,19.563c0.328,1.032,1.157,1.603,1.923,1.253
	C750.501,718.66,755.035,717.658,759.629,717.658z"/>
<path display="none" fill="#31ABFF" d="M750.686,703.627l3.01,0.176l-1.854-5.907l-6.055,4.576l2.898,0.903
	c-6.05,8.577,7.235,16.625,0.38,26.625c0.573,0,1.298,0,2.209,0C758.053,720,745.121,712.109,750.686,703.627z"/>
<path display="none" fill="#31ABFF" d="M759.294,703.627l3.01,0.176l-1.854-5.907l-6.056,4.576l2.897,0.903
	c-6.049,8.577,7.235,16.625,0.382,26.625c0.574,0,1.297,0,2.209,0C766.661,720,753.73,712.109,759.294,703.627z"/>
<path display="none" fill="#31ABFF" d="M767.904,703.627l3.008,0.176l-1.854-5.907l-6.055,4.576l2.897,0.903
	c-6.05,8.577,7.235,16.625,0.38,26.625c0.573,0,1.298,0,2.209,0C775.269,720,762.336,712.109,767.904,703.627z"/>
<linearGradient id="SVGID_10_" gradientUnits="userSpaceOnUse" x1="207.6294" y1="643.626" x2="207.6294" y2="737.4362">
	<stop  offset="0.5092" style="stop-color:#31ABFF;stop-opacity:0"/>
	<stop  offset="0.9018" style="stop-color:#31ABFF"/>
	<stop  offset="1" style="stop-color:#63E6FF"/>
</linearGradient>
<path display="none" fill="url(#SVGID_10_)" stroke="#31ABFF" stroke-miterlimit="10" d="M268.629,643.039V738.5h-122v-80.76
	C186.629,651.722,227.629,646.832,268.629,643.039z"/>
<linearGradient id="SVGID_11_" gradientUnits="userSpaceOnUse" x1="758.6294" y1="643.626" x2="758.6294" y2="737.4362">
	<stop  offset="0.5092" style="stop-color:#31ABFF;stop-opacity:0"/>
	<stop  offset="0.9018" style="stop-color:#31ABFF"/>
	<stop  offset="1" style="stop-color:#63E6FF"/>
</linearGradient>
<path display="none" fill="url(#SVGID_11_)" stroke="#31ABFF" stroke-miterlimit="10" d="M697.629,643.039V738.5h122v-80.76
	C780.629,651.722,739.629,646.832,697.629,643.039z"/>
<g display="none">
	<g display="inline">
		<g>
			<circle fill="#FFFFFF" cx="236.991" cy="676.459" r="8.235"/>
			<path fill="#FFFFFF" d="M239.268,687.889l-1.035-0.57c-2.861-1.577-6.458-0.536-8.035,2.323l-6.644,12.053l-13.158-4.315
				c-3.009-0.986-6.572,0.18-9.142,3.18l0.004,0.003c-0.45,0.409-0.876,0.873-1.262,1.395l-10.893,14.743
				c-1.679,2.271-1.607,5.14,0.098,6.486l0.618,0.487c1.706,1.349,4.512,0.756,6.334-1.402l11.504-13.622l15.161,5.823
				c1.32,0.507,2.731,0.665,4.069,0.524c2.312,0.265,4.662-0.854,5.854-3.019l8.852-16.056
				C243.169,693.063,242.128,689.466,239.268,687.889z"/>
		</g>
		<polygon fill="#FFFFFF" points="165.347,682 179.608,699.699 193.868,682 187.129,682 187.129,666 172.129,666 172.129,682 		"/>
	</g>
</g>
<path display="none" fill="#FFFFFF" d="M747.514,675.48c-0.104-2.278-0.235-5.027-0.209-7.41h-0.079
	c-0.576,2.146-1.31,4.529-2.095,6.755l-2.566,7.646h-2.487l-2.356-7.541c-0.681-2.251-1.309-4.66-1.78-6.859h-0.053
	c-0.078,2.304-0.183,5.105-0.313,7.515l-0.394,7.096h-3.011l1.178-17.648h4.242l2.305,7.097c0.628,2.068,1.178,4.163,1.623,6.127
	h0.078c0.472-1.912,1.074-4.085,1.755-6.153l2.435-7.07h4.189l1.021,17.648h-3.142L747.514,675.48z"/>
<path display="none" fill="#FFFFFF" d="M757.647,677.68l-1.519,5.001h-3.325l5.656-17.648h4.11l5.734,17.648h-3.456l-1.598-5.001
	H757.647z M762.701,675.244l-1.388-4.347c-0.34-1.073-0.628-2.277-0.891-3.299h-0.052c-0.262,1.021-0.523,2.252-0.838,3.299
	l-1.361,4.347H762.701z"/>
<path display="none" fill="#FFFFFF" d="M779.695,682.681l-1.911-3.509c-0.76-1.361-1.257-2.304-1.755-3.325h-0.078
	c-0.419,1.021-0.891,1.964-1.598,3.325l-1.754,3.509h-3.692l5.237-8.929l-5.027-8.72h3.691l1.912,3.64
	c0.575,1.1,0.995,1.964,1.466,2.959h0.053c0.471-1.1,0.838-1.885,1.388-2.959l1.885-3.64h3.692l-5.158,8.615l5.367,9.033H779.695z"
	/>
<path display="none" fill="#FFFFFF" d="M773.577,723.187c-0.509,0-1.007-0.109-1.483-0.324c-8.057-3.664-16.873-3.663-24.926-0.001
	c-0.478,0.216-0.977,0.325-1.484,0.325c-1.702,0-3.187-1.207-3.78-3.075l-6.004-19.563c-0.773-2.435,0.854-5.537,3.557-6.764
	c13.016-5.92,27.331-5.92,40.349,0c2.702,1.227,4.329,4.329,3.552,6.775l-5.996,19.54
	C776.762,721.979,775.279,723.187,773.577,723.187z M759.629,717.658c4.595,0,9.127,1.002,13.473,2.979
	c0.756,0.343,1.592-0.218,1.926-1.266l5.996-19.54c0.37-1.165-0.507-3.04-2.23-3.822c-12.381-5.631-25.948-5.631-38.327,0
	c-1.725,0.782-2.602,2.657-2.235,3.811l6.004,19.563c0.328,1.032,1.157,1.603,1.923,1.253
	C750.501,718.66,755.035,717.658,759.629,717.658z"/>
<path display="none" fill="#FFFFFF" d="M750.686,703.627l3.01,0.176l-1.854-5.907l-6.055,4.576l2.898,0.903
	c-6.05,8.577,7.235,16.625,0.38,26.625c0.573,0,1.298,0,2.209,0C758.053,720,745.121,712.109,750.686,703.627z"/>
<path display="none" fill="#FFFFFF" d="M759.294,703.627l3.01,0.176l-1.854-5.907l-6.056,4.576l2.897,0.903
	c-6.049,8.577,7.235,16.625,0.382,26.625c0.574,0,1.297,0,2.209,0C766.661,720,753.73,712.109,759.294,703.627z"/>
<path display="none" fill="#FFFFFF" d="M767.904,703.627l3.008,0.176l-1.854-5.907l-6.055,4.576l2.897,0.903
	c-6.05,8.577,7.235,16.625,0.38,26.625c0.573,0,1.298,0,2.209,0C775.269,720,762.336,712.109,767.904,703.627z"/>
<g display="none">
	<g display="inline">
		<g display="none">
			<circle fill="#31ABFF" cx="236.991" cy="676.459" r="8.235"/>
			<path fill="#31ABFF" d="M239.268,687.889l-1.035-0.57c-2.861-1.577-6.458-0.536-8.035,2.323l-6.644,12.053l-13.158-4.315
				c-3.009-0.986-6.572,0.18-9.142,3.18l0.004,0.003c-0.45,0.409-0.876,0.873-1.262,1.395l-10.893,14.743
				c-1.679,2.271-1.607,5.14,0.098,6.486l0.618,0.487c1.706,1.349,4.512,0.756,6.334-1.402l11.504-13.622l15.161,5.823
				c1.32,0.507,2.731,0.665,4.069,0.524c2.312,0.265,4.662-0.854,5.854-3.019l8.852-16.056
				C243.169,693.063,242.128,689.466,239.268,687.889z"/>
		</g>
		<polygon display="none" fill="#31ABFF" points="165.347,682 179.608,699.699 193.868,682 187.129,682 187.129,666 172.129,666 
			172.129,682 		"/>
	</g>
</g>
<text transform="matrix(1 0 0 1 730.7563 682.6807)" display="none" fill="#31ABFF" font-family="'MyriadPro-Semibold'" font-size="26.1844">MAX</text>
<path display="none" fill="none" stroke="#31ABFF" stroke-width="2.4433" stroke-miterlimit="10" d="M776.192,719.741
	c-0.579,1.821-2.173,2.65-3.596,2.008c-8.41-3.825-17.523-3.825-25.935,0c-1.42,0.643-3.016-0.187-3.595-2.008
	c-2-6.518-3.999-13.035-6-19.552c-0.577-1.816,0.696-4.296,2.894-5.293c12.758-5.803,26.58-5.803,39.338,0
	c2.197,0.997,3.471,3.477,2.894,5.293C780.191,706.706,778.192,713.224,776.192,719.741z"/>
<path display="none" fill="#31ABFF" d="M750.686,703.627l3.01,0.176l-1.854-5.907l-6.055,4.576l2.898,0.903
	c-6.05,8.577,7.235,16.625,0.38,26.625c0.573,0,1.298,0,2.209,0C758.053,720,745.121,712.109,750.686,703.627z"/>
<path display="none" fill="#31ABFF" d="M759.294,703.627l3.01,0.176l-1.854-5.907l-6.056,4.576l2.897,0.903
	c-6.049,8.577,7.235,16.625,0.382,26.625c0.574,0,1.297,0,2.209,0C766.661,720,753.73,712.109,759.294,703.627z"/>
<path display="none" fill="#31ABFF" d="M767.904,703.627l3.008,0.176l-1.854-5.907l-6.055,4.576l2.897,0.903
	c-6.05,8.577,7.235,16.625,0.38,26.625c0.573,0,1.298,0,2.209,0C775.269,720,762.336,712.109,767.904,703.627z"/>
<linearGradient id="SVGID_12_" gradientUnits="userSpaceOnUse" x1="352.6289" y1="349.6606" x2="352.6289" y2="574.0165" gradientTransform="matrix(-1 0 0 1 965.2588 0)">
	<stop  offset="0" style="stop-color:#2175AD"/>
	<stop  offset="0.2822" style="stop-color:#2175AD;stop-opacity:0"/>
	<stop  offset="0.7055" style="stop-color:#2175AD;stop-opacity:0"/>
	<stop  offset="1" style="stop-color:#2175AD"/>
</linearGradient>
<polygon display="none" fill="url(#SVGID_12_)" stroke="#31ABFF" stroke-miterlimit="10" points="533.629,435.516 533.629,345.5 
	691.629,345.5 691.629,577.5 533.629,577.5 533.629,486.998 559.371,461.257 "/>
<path fill="none" stroke="#00507F" stroke-miterlimit="10" d="M968.129,664.752C828.971,627.465,638.581,610,484.129,610
	s-344.841,17.465-484,54.752"/>
<path fill="#31ABFF" d="M583.971,125.855c1.144-0.187,2.848-0.327,4.739-0.327c2.334,0,3.969,0.351,5.089,1.237
	c0.935,0.747,1.448,1.845,1.448,3.292c0,2.008-1.425,3.385-2.778,3.875v0.07c1.097,0.444,1.704,1.494,2.101,2.942
	c0.49,1.774,0.98,3.829,1.284,4.436h-3.642c-0.257-0.443-0.631-1.728-1.098-3.666c-0.42-1.961-1.097-2.498-2.545-2.521h-1.073v6.187
	h-3.525V125.855z M587.497,132.625h1.4c1.774,0,2.825-0.887,2.825-2.264c0-1.448-0.98-2.171-2.615-2.195
	c-0.863,0-1.354,0.07-1.61,0.117V132.625z"/>
<path fill="#31ABFF" d="M614.083,140.937c-0.653,0.327-2.124,0.677-4.038,0.677c-5.44,0-8.241-3.385-8.241-7.868
	c0-5.37,3.828-8.358,8.591-8.358c1.845,0,3.245,0.374,3.876,0.701l-0.724,2.825c-0.725-0.303-1.729-0.583-2.988-0.583
	c-2.825,0-5.02,1.704-5.02,5.206c0,3.152,1.867,5.136,5.042,5.136c1.074,0,2.265-0.233,2.966-0.514L614.083,140.937z"/>
<path fill="#31ABFF" d="M616.417,125.645h3.571v12.747h6.257v2.988h-9.828V125.645z"/>
<path fill="#31ABFF" d="M631.916,125.645v15.735h-3.571v-15.735H631.916z"/>
<path fill="#31ABFF" d="M648.303,135.357c-0.069-1.891-0.14-4.179-0.14-6.467h-0.07c-0.49,2.008-1.144,4.249-1.751,6.093
	l-1.914,6.14h-2.778l-1.681-6.093c-0.514-1.844-1.051-4.085-1.424-6.14h-0.047c-0.094,2.125-0.164,4.553-0.28,6.514l-0.28,5.977
	h-3.292l1.004-15.735h4.739l1.541,5.253c0.49,1.821,0.98,3.782,1.331,5.626h0.069c0.444-1.821,0.98-3.899,1.494-5.65l1.682-5.229
	h4.646l0.863,15.735h-3.479L648.303,135.357z"/>
<path fill="#31ABFF" d="M658.339,137.341l-1.12,4.039h-3.689l4.81-15.735h4.669l4.88,15.735h-3.829l-1.214-4.039H658.339z
	 M662.332,134.68l-0.98-3.338c-0.28-0.934-0.561-2.102-0.794-3.035h-0.047c-0.233,0.934-0.467,2.125-0.724,3.035l-0.934,3.338
	H662.332z"/>
<path fill="#31ABFF" d="M671.084,128.633h-4.226v-2.988h12.093v2.988h-4.296v12.747h-3.571V128.633z"/>
<path fill="#31ABFF" d="M690.202,134.727h-5.79v3.735h6.468v2.918H680.84v-15.735h9.712v2.918h-6.141v3.269h5.79V134.727z"/>
<path fill="#31ABFF" d="M326.542,125.645h3.572v12.747h6.257v2.988h-9.829V125.645z"/>
<path fill="#31ABFF" d="M354.74,140.937c-0.654,0.327-2.125,0.677-4.039,0.677c-5.439,0-8.241-3.385-8.241-7.868
	c0-5.37,3.829-8.358,8.591-8.358c1.845,0,3.245,0.374,3.875,0.701l-0.724,2.825c-0.724-0.303-1.728-0.583-2.988-0.583
	c-2.825,0-5.02,1.704-5.02,5.206c0,3.152,1.868,5.136,5.043,5.136c1.074,0,2.265-0.233,2.965-0.514L354.74,140.937z"/>
<path fill="#31ABFF" d="M357.072,125.645h3.572v12.747h6.257v2.988h-9.829V125.645z"/>
<path fill="#31ABFF" d="M372.571,125.645v15.735H369v-15.735H372.571z"/>
<path fill="#31ABFF" d="M388.959,135.357c-0.07-1.891-0.14-4.179-0.14-6.467h-0.07c-0.49,2.008-1.144,4.249-1.751,6.093l-1.914,6.14
	h-2.778l-1.681-6.093c-0.514-1.844-1.051-4.085-1.424-6.14h-0.046c-0.094,2.125-0.164,4.553-0.28,6.514l-0.28,5.977h-3.292
	l1.004-15.735h4.739l1.541,5.253c0.49,1.821,0.98,3.782,1.331,5.626h0.07c0.443-1.821,0.98-3.899,1.494-5.65l1.681-5.229h4.646
	l0.864,15.735h-3.479L388.959,135.357z"/>
<path fill="#31ABFF" d="M398.994,137.341l-1.121,4.039h-3.688l4.809-15.735h4.669l4.879,15.735h-3.829l-1.214-4.039H398.994z
	 M402.986,134.68l-0.98-3.338c-0.28-0.934-0.56-2.102-0.794-3.035h-0.046c-0.233,0.934-0.467,2.125-0.724,3.035l-0.934,3.338
	H402.986z"/>
<path fill="#31ABFF" d="M411.739,128.633h-4.226v-2.988h12.093v2.988h-4.295v12.747h-3.572V128.633z"/>
<path fill="#31ABFF" d="M430.856,134.727h-5.79v3.735h6.467v2.918h-10.039v-15.735h9.712v2.918h-6.14v3.269h5.79V134.727z"/>
<polyline fill="#31ABFF" fill-opacity="0.29" stroke="#31ABFF" stroke-width="0.2319" stroke-miterlimit="10" stroke-opacity="0.64" points="
	187.129,596.969 187.129,606.938 144.129,606.938 144.129,581.018 187.129,581.018 187.129,596.969 "/>
<polyline fill="#31ABFF" fill-opacity="0.29" stroke="#31ABFF" stroke-width="0.2319" stroke-miterlimit="10" stroke-opacity="0.64" points="
	187.129,561.967 187.129,571.937 144.129,571.937 144.129,546.016 187.129,546.016 187.129,561.967 "/>
<polyline fill="#31ABFF" fill-opacity="0.29" stroke="#31ABFF" stroke-width="0.2319" stroke-miterlimit="10" stroke-opacity="0.64" points="
	187.129,526.966 187.129,536.935 144.129,536.935 144.129,511.015 187.129,511.015 187.129,526.966 "/>
<polyline fill="#31ABFF" fill-opacity="0.29" stroke="#31ABFF" stroke-width="0.2319" stroke-miterlimit="10" stroke-opacity="0.64" points="
	187.129,491.964 187.129,501.934 144.129,501.934 144.129,476.014 187.129,476.014 187.129,491.964 "/>
<polyline fill="#31ABFF" fill-opacity="0.29" stroke="#31ABFF" stroke-width="0.2319" stroke-miterlimit="10" stroke-opacity="0.64" points="
	187.129,456.963 187.129,466.932 144.129,466.932 144.129,441.012 187.129,441.012 187.129,456.963 "/>
<polyline fill="#31ABFF" fill-opacity="0.29" stroke="#31ABFF" stroke-width="0.2319" stroke-miterlimit="10" stroke-opacity="0.64" points="
	187.129,421.961 187.129,431.931 144.129,431.931 144.129,406.01 187.129,406.01 187.129,421.961 "/>
<polyline fill="#31ABFF" fill-opacity="0.29" stroke="#31ABFF" stroke-width="0.2319" stroke-miterlimit="10" stroke-opacity="0.64" points="
	187.129,386.96 187.129,396.929 144.129,396.929 144.129,371.009 187.129,371.009 187.129,386.96 "/>
<polyline fill="#31ABFF" fill-opacity="0.29" stroke="#31ABFF" stroke-width="0.2319" stroke-miterlimit="10" stroke-opacity="0.64" points="
	187.129,351.959 187.129,361.928 144.129,361.928 144.129,336.008 187.129,336.008 187.129,351.959 "/>
<polyline fill="#31ABFF" fill-opacity="0.29" stroke="#31ABFF" stroke-width="0.2319" stroke-miterlimit="10" stroke-opacity="0.64" points="
	187.129,316.958 187.129,326.927 144.129,326.927 144.129,301.007 187.129,301.007 187.129,316.958 "/>
<polyline fill="#31ABFF" fill-opacity="0.29" stroke="#31ABFF" stroke-width="0.2319" stroke-miterlimit="10" stroke-opacity="0.64" points="
	187.129,281.956 187.129,291.925 144.129,291.925 144.129,266.005 187.129,266.005 187.129,281.956 "/>
<polyline fill="#31ABFF" fill-opacity="0.29" stroke="#31ABFF" stroke-width="0.2319" stroke-miterlimit="10" stroke-opacity="0.64" points="
	187.129,246.955 187.129,256.924 144.129,256.924 144.129,231.004 187.129,231.004 187.129,246.955 "/>
<polyline fill="#31ABFF" fill-opacity="0.29" stroke="#31ABFF" stroke-width="0.2319" stroke-miterlimit="10" stroke-opacity="0.64" points="
	187.129,211.954 187.129,221.923 144.129,221.923 144.129,196.003 187.129,196.003 187.129,211.954 "/>
<polyline fill="#31ABFF" fill-opacity="0.29" stroke="#31ABFF" stroke-width="0.2319" stroke-miterlimit="10" stroke-opacity="0.64" points="
	187.129,176.952 187.129,186.921 144.129,186.921 144.129,161.001 187.129,161.001 187.129,176.952 "/>
<polyline fill="#31ABFF" fill-opacity="0.29" stroke="#31ABFF" stroke-width="0.2319" stroke-miterlimit="10" stroke-opacity="0.64" points="
	187.129,141.951 187.129,151.92 144.129,151.92 144.129,126 187.129,126 187.129,141.951 "/>
<rect x="275.129" y="126" fill="#31ABFF" width="45" height="15"/>
<rect x="533.129" y="126" fill="#31ABFF" width="45" height="15"/>
<line fill="#31ABFF" stroke="#31ABFF" stroke-miterlimit="10" x1="203.629" y1="126" x2="203.629" y2="607"/>
<polyline fill="#31ABFF" fill-opacity="0.29" stroke="#31ABFF" stroke-width="0.2319" stroke-miterlimit="10" stroke-opacity="0.64" points="
	780.129,596.969 780.129,606.938 823.129,606.938 823.129,581.018 780.129,581.018 780.129,596.969 "/>
<polyline fill="#31ABFF" fill-opacity="0.29" stroke="#31ABFF" stroke-width="0.2319" stroke-miterlimit="10" stroke-opacity="0.64" points="
	780.129,561.967 780.129,571.937 823.129,571.937 823.129,546.016 780.129,546.016 780.129,561.967 "/>
<polyline fill="#31ABFF" fill-opacity="0.29" stroke="#31ABFF" stroke-width="0.2319" stroke-miterlimit="10" stroke-opacity="0.64" points="
	780.129,526.966 780.129,536.935 823.129,536.935 823.129,511.015 780.129,511.015 780.129,526.966 "/>
<polyline fill="#31ABFF" fill-opacity="0.29" stroke="#31ABFF" stroke-width="0.2319" stroke-miterlimit="10" stroke-opacity="0.64" points="
	780.129,491.964 780.129,501.934 823.129,501.934 823.129,476.014 780.129,476.014 780.129,491.964 "/>
<polyline fill="#31ABFF" fill-opacity="0.29" stroke="#31ABFF" stroke-width="0.2319" stroke-miterlimit="10" stroke-opacity="0.64" points="
	780.129,456.963 780.129,466.932 823.129,466.932 823.129,441.012 780.129,441.012 780.129,456.963 "/>
<polyline fill="#31ABFF" fill-opacity="0.29" stroke="#31ABFF" stroke-width="0.2319" stroke-miterlimit="10" stroke-opacity="0.64" points="
	780.129,421.961 780.129,431.931 823.129,431.931 823.129,406.01 780.129,406.01 780.129,421.961 "/>
<polyline fill="#31ABFF" fill-opacity="0.29" stroke="#31ABFF" stroke-width="0.2319" stroke-miterlimit="10" stroke-opacity="0.64" points="
	780.129,386.96 780.129,396.929 823.129,396.929 823.129,371.009 780.129,371.009 780.129,386.96 "/>
<polyline fill="#31ABFF" fill-opacity="0.29" stroke="#31ABFF" stroke-width="0.2319" stroke-miterlimit="10" stroke-opacity="0.64" points="
	780.129,351.959 780.129,361.928 823.129,361.928 823.129,336.008 780.129,336.008 780.129,351.959 "/>
<polyline fill="#31ABFF" fill-opacity="0.29" stroke="#31ABFF" stroke-width="0.2319" stroke-miterlimit="10" stroke-opacity="0.64" points="
	780.129,316.958 780.129,326.927 823.129,326.927 823.129,301.007 780.129,301.007 780.129,316.958 "/>
<polyline fill="#31ABFF" fill-opacity="0.29" stroke="#31ABFF" stroke-width="0.2319" stroke-miterlimit="10" stroke-opacity="0.64" points="
	780.129,281.956 780.129,291.925 823.129,291.925 823.129,266.005 780.129,266.005 780.129,281.956 "/>
<polyline fill="#31ABFF" fill-opacity="0.29" stroke="#31ABFF" stroke-width="0.2319" stroke-miterlimit="10" stroke-opacity="0.64" points="
	780.129,246.955 780.129,256.924 823.129,256.924 823.129,231.004 780.129,231.004 780.129,246.955 "/>
<polyline fill="#31ABFF" fill-opacity="0.29" stroke="#31ABFF" stroke-width="0.2319" stroke-miterlimit="10" stroke-opacity="0.64" points="
	780.129,211.954 780.129,221.923 823.129,221.923 823.129,196.003 780.129,196.003 780.129,211.954 "/>
<polyline fill="#31ABFF" fill-opacity="0.29" stroke="#31ABFF" stroke-width="0.2319" stroke-miterlimit="10" stroke-opacity="0.64" points="
	780.129,176.952 780.129,186.921 823.129,186.921 823.129,161.001 780.129,161.001 780.129,176.952 "/>
<polyline fill="#31ABFF" fill-opacity="0.29" stroke="#31ABFF" stroke-width="0.2319" stroke-miterlimit="10" stroke-opacity="0.64" points="
	780.129,141.951 780.129,151.92 823.129,151.92 823.129,126 780.129,126 780.129,141.951 "/>
<line fill="#31ABFF" stroke="#31ABFF" stroke-miterlimit="10" x1="763.629" y1="126" x2="763.629" y2="607"/>
<line fill="#31ABFF" stroke="#31ABFF" stroke-miterlimit="10" x1="667.129" y1="719.5" x2="363.129" y2="719.5"/>
<g>
	<g>
		<g>
			<path fill="#31ABFF" d="M332.218,659.1c-2.009-2.359-5.185-3.606-8.528-3.606c-1.786-0.001-3.477,0.394-4.998,1.096
				c0,0-1.44,0.746-3.202-1.096s-5.605-8.78-1.644-10.731c15.362-7.283,32.982,0.008,37.59,10.775
				C353.868,660.111,336.481,664.104,332.218,659.1z"/>
			<path opacity="0.64" fill="none" stroke="#31ABFF" stroke-width="0.9923" stroke-miterlimit="10" d="M332.218,659.1
				c-2.009-2.359-5.185-3.606-8.528-3.606c-1.786-0.001-3.477,0.394-4.998,1.096c0,0-1.44,0.746-3.202-1.096
				s-5.605-8.78-1.644-10.731c15.362-7.283,32.982,0.008,37.59,10.775C353.868,660.111,336.481,664.104,332.218,659.1z"/>
		</g>
		<g>
			<path fill="#31ABFF" d="M312.857,664.641c-1.04,2.921-0.532,6.294,1.14,9.189c0.891,1.547,2.078,2.814,3.448,3.779
				c0,0,1.364,0.875,0.652,3.322c-0.715,2.446-4.801,9.245-8.473,6.791c-13.987-9.664-16.484-28.569-9.462-37.944
				C302.907,645.386,315.058,658.446,312.857,664.641z"/>
			<path opacity="0.64" fill="none" stroke="#31ABFF" stroke-width="0.9923" stroke-miterlimit="10" d="M312.857,664.641
				c-1.04,2.921-0.532,6.294,1.14,9.189c0.891,1.547,2.078,2.814,3.448,3.779c0,0,1.364,0.875,0.652,3.322
				c-0.715,2.446-4.801,9.245-8.473,6.791c-13.987-9.664-16.484-28.569-9.462-37.944
				C302.907,645.386,315.058,658.446,312.857,664.641z"/>
		</g>
		<g>
			<path fill="#31ABFF" d="M327.336,678.637c3.049-0.561,5.715-2.686,7.388-5.581c0.893-1.547,1.397-3.208,1.547-4.876
				c0,0,0.077-1.618,2.552-2.226c2.474-0.604,10.406-0.465,10.116,3.942c-1.375,16.944-16.498,28.562-28.128,27.167
				C315.636,696.882,320.872,679.828,327.336,678.637z"/>
			<path opacity="0.64" fill="none" stroke="#31ABFF" stroke-width="0.9923" stroke-miterlimit="10" d="M327.336,678.637
				c3.049-0.561,5.715-2.686,7.388-5.581c0.893-1.547,1.397-3.208,1.547-4.876c0,0,0.077-1.618,2.552-2.226
				c2.474-0.604,10.406-0.465,10.116,3.942c-1.375,16.944-16.498,28.562-28.128,27.167
				C315.636,696.882,320.872,679.828,327.336,678.637z"/>
		</g>
		<g>
			<circle fill="#31ABFF" cx="323.689" cy="667.522" r="7.302"/>
			
				<circle opacity="0.64" fill="none" stroke="#31ABFF" stroke-width="0.9923" stroke-miterlimit="10" cx="323.689" cy="667.522" r="7.302"/>
		</g>
	</g>
</g>
<path fill="#31ABFF" fill-opacity="0.29" stroke="#31ABFF" stroke-width="0.2319" stroke-miterlimit="10" stroke-opacity="0.64" d="
	M362.629,703.5h29v-68.552c-9.608,0.396-19.279,0.849-29,1.366V703.5z"/>
<path fill="#31ABFF" fill-opacity="0.29" stroke="#31ABFF" stroke-width="0.2319" stroke-miterlimit="10" stroke-opacity="0.64" d="
	M401.629,703.5h29v-69.834c-9.582,0.234-19.253,0.529-29,0.89V703.5z"/>
<path fill="#31ABFF" fill-opacity="0.29" stroke="#31ABFF" stroke-width="0.2319" stroke-miterlimit="10" stroke-opacity="0.64" d="
	M440.629,703.5h28v-70.443c-9.225,0.067-18.564,0.196-28,0.386V703.5z"/>
<path fill="#31ABFF" fill-opacity="0.29" stroke="#31ABFF" stroke-width="0.2319" stroke-miterlimit="10" stroke-opacity="0.64" d="
	M479.629,633.008V703.5h29v-70.351c-8.34-0.098-16.598-0.149-24.75-0.149C482.468,633,481.047,633.005,479.629,633.008z"/>
<path fill="#31ABFF" fill-opacity="0.29" stroke="#31ABFF" stroke-width="0.2319" stroke-miterlimit="10" stroke-opacity="0.64" d="
	M519.629,703.5h28v-69.553c-9.42-0.273-18.76-0.488-28-0.643V703.5z"/>
<path fill="#31ABFF" fill-opacity="0.29" stroke="#31ABFF" stroke-width="0.2319" stroke-miterlimit="10" stroke-opacity="0.64" d="
	M558.629,703.5h29v-68.051c-9.73-0.447-19.404-0.835-29-1.159V703.5z"/>
<path fill="#31ABFF" fill-opacity="0.29" stroke="#31ABFF" stroke-width="0.2319" stroke-miterlimit="10" stroke-opacity="0.64" d="
	M597.629,703.5h28v-66.005c-9.371-0.578-18.71-1.103-28-1.567V703.5z"/>
<path fill="#31ABFF" fill-opacity="0.29" stroke="#31ABFF" stroke-width="0.2319" stroke-miterlimit="10" stroke-opacity="0.64" d="
	M636.629,703.5h29v-63.205c-9.684-0.759-19.356-1.46-29-2.099V703.5z"/>
<rect x="210.129" y="127" display="none" fill="#31ABFF" width="2" height="482"/>
<polyline display="none" fill="#31ABFF" stroke="#31ABFF" stroke-width="0.2319" stroke-miterlimit="10" stroke-opacity="0.64" points="
	187.129,596.969 187.129,606.938 144.129,606.938 144.129,581.018 187.129,581.018 187.129,596.969 "/>
<polyline display="none" fill="#31ABFF" stroke="#31ABFF" stroke-width="0.2319" stroke-miterlimit="10" stroke-opacity="0.64" points="
	187.129,561.967 187.129,571.937 144.129,571.937 144.129,546.016 187.129,546.016 187.129,561.967 "/>
<polyline display="none" fill="#31ABFF" stroke="#31ABFF" stroke-width="0.2319" stroke-miterlimit="10" stroke-opacity="0.64" points="
	187.129,526.966 187.129,536.935 144.129,536.935 144.129,511.015 187.129,511.015 187.129,526.966 "/>
<polyline display="none" fill="#31ABFF" stroke="#31ABFF" stroke-width="0.2319" stroke-miterlimit="10" stroke-opacity="0.64" points="
	187.129,491.964 187.129,501.934 144.129,501.934 144.129,476.014 187.129,476.014 187.129,491.964 "/>
<polyline display="none" fill="#31ABFF" stroke="#31ABFF" stroke-width="0.2319" stroke-miterlimit="10" stroke-opacity="0.64" points="
	187.129,456.963 187.129,466.932 144.129,466.932 144.129,441.012 187.129,441.012 187.129,456.963 "/>
<polyline display="none" fill="#31ABFF" stroke="#31ABFF" stroke-width="0.2319" stroke-miterlimit="10" stroke-opacity="0.64" points="
	187.129,421.961 187.129,431.931 144.129,431.931 144.129,406.01 187.129,406.01 187.129,421.961 "/>
<polyline display="none" fill="#31ABFF" stroke="#31ABFF" stroke-width="0.2319" stroke-miterlimit="10" stroke-opacity="0.64" points="
	187.129,386.96 187.129,396.929 144.129,396.929 144.129,371.009 187.129,371.009 187.129,386.96 "/>
<polyline display="none" fill="#31ABFF" stroke="#31ABFF" stroke-width="0.2319" stroke-miterlimit="10" stroke-opacity="0.64" points="
	187.129,351.959 187.129,361.928 144.129,361.928 144.129,336.008 187.129,336.008 187.129,351.959 "/>
<polyline display="none" fill="#31ABFF" stroke="#31ABFF" stroke-width="0.2319" stroke-miterlimit="10" stroke-opacity="0.64" points="
	187.129,316.958 187.129,326.927 144.129,326.927 144.129,301.007 187.129,301.007 187.129,316.958 "/>
<polyline display="none" fill="#31ABFF" stroke="#31ABFF" stroke-width="0.2319" stroke-miterlimit="10" stroke-opacity="0.64" points="
	187.129,281.956 187.129,291.925 144.129,291.925 144.129,266.005 187.129,266.005 187.129,281.956 "/>
<polyline display="none" fill="#31ABFF" stroke="#31ABFF" stroke-width="0.2319" stroke-miterlimit="10" stroke-opacity="0.64" points="
	187.129,246.955 187.129,256.924 144.129,256.924 144.129,231.004 187.129,231.004 187.129,246.955 "/>
<polyline display="none" fill="#31ABFF" stroke="#31ABFF" stroke-width="0.2319" stroke-miterlimit="10" stroke-opacity="0.64" points="
	187.129,211.954 187.129,221.923 144.129,221.923 144.129,196.003 187.129,196.003 187.129,211.954 "/>
<polyline display="none" fill="#31ABFF" stroke="#31ABFF" stroke-width="0.2319" stroke-miterlimit="10" stroke-opacity="0.64" points="
	187.129,176.952 187.129,186.921 144.129,186.921 144.129,161.001 187.129,161.001 187.129,176.952 "/>
<polyline display="none" fill="#31ABFF" stroke="#31ABFF" stroke-width="0.2319" stroke-miterlimit="10" stroke-opacity="0.64" points="
	187.129,141.951 187.129,151.92 144.129,151.92 144.129,126 187.129,126 187.129,141.951 "/>
<rect x="755.129" y="127" display="none" fill="#31ABFF" width="2" height="482"/>
<polyline display="none" fill="#31ABFF" stroke="#31ABFF" stroke-width="0.2319" stroke-miterlimit="10" stroke-opacity="0.64" points="
	780.129,596.969 780.129,606.938 823.129,606.938 823.129,581.018 780.129,581.018 780.129,596.969 "/>
<polyline display="none" fill="#31ABFF" stroke="#31ABFF" stroke-width="0.2319" stroke-miterlimit="10" stroke-opacity="0.64" points="
	780.129,561.967 780.129,571.937 823.129,571.937 823.129,546.016 780.129,546.016 780.129,561.967 "/>
<polyline display="none" fill="#31ABFF" stroke="#31ABFF" stroke-width="0.2319" stroke-miterlimit="10" stroke-opacity="0.64" points="
	780.129,526.966 780.129,536.935 823.129,536.935 823.129,511.015 780.129,511.015 780.129,526.966 "/>
<polyline display="none" fill="#31ABFF" stroke="#31ABFF" stroke-width="0.2319" stroke-miterlimit="10" stroke-opacity="0.64" points="
	780.129,491.964 780.129,501.934 823.129,501.934 823.129,476.014 780.129,476.014 780.129,491.964 "/>
<polyline display="none" fill="#31ABFF" stroke="#31ABFF" stroke-width="0.2319" stroke-miterlimit="10" stroke-opacity="0.64" points="
	780.129,456.963 780.129,466.932 823.129,466.932 823.129,441.012 780.129,441.012 780.129,456.963 "/>
<polyline display="none" fill="#31ABFF" stroke="#31ABFF" stroke-width="0.2319" stroke-miterlimit="10" stroke-opacity="0.64" points="
	780.129,421.961 780.129,431.931 823.129,431.931 823.129,406.01 780.129,406.01 780.129,421.961 "/>
<polyline display="none" fill="#31ABFF" stroke="#31ABFF" stroke-width="0.2319" stroke-miterlimit="10" stroke-opacity="0.64" points="
	780.129,386.96 780.129,396.929 823.129,396.929 823.129,371.009 780.129,371.009 780.129,386.96 "/>
<polyline display="none" fill="#31ABFF" stroke="#31ABFF" stroke-width="0.2319" stroke-miterlimit="10" stroke-opacity="0.64" points="
	780.129,351.959 780.129,361.928 823.129,361.928 823.129,336.008 780.129,336.008 780.129,351.959 "/>
<polyline display="none" fill="#31ABFF" stroke="#31ABFF" stroke-width="0.2319" stroke-miterlimit="10" stroke-opacity="0.64" points="
	780.129,316.958 780.129,326.927 823.129,326.927 823.129,301.007 780.129,301.007 780.129,316.958 "/>
<polyline display="none" fill="#31ABFF" stroke="#31ABFF" stroke-width="0.2319" stroke-miterlimit="10" stroke-opacity="0.64" points="
	780.129,281.956 780.129,291.925 823.129,291.925 823.129,266.005 780.129,266.005 780.129,281.956 "/>
<polyline display="none" fill="#31ABFF" stroke="#31ABFF" stroke-width="0.2319" stroke-miterlimit="10" stroke-opacity="0.64" points="
	780.129,246.955 780.129,256.924 823.129,256.924 823.129,231.004 780.129,231.004 780.129,246.955 "/>
<polyline display="none" fill="#31ABFF" stroke="#31ABFF" stroke-width="0.2319" stroke-miterlimit="10" stroke-opacity="0.64" points="
	780.129,211.954 780.129,221.923 823.129,221.923 823.129,196.003 780.129,196.003 780.129,211.954 "/>
<polyline display="none" fill="#31ABFF" stroke="#31ABFF" stroke-width="0.2319" stroke-miterlimit="10" stroke-opacity="0.64" points="
	780.129,176.952 780.129,186.921 823.129,186.921 823.129,161.001 780.129,161.001 780.129,176.952 "/>
<polyline display="none" fill="#31ABFF" stroke="#31ABFF" stroke-width="0.2319" stroke-miterlimit="10" stroke-opacity="0.64" points="
	780.129,141.951 780.129,151.92 823.129,151.92 823.129,126 780.129,126 780.129,141.951 "/>
<rect x="274.702" y="175.708" display="none" fill="#31ABFF" fill-opacity="0.29" stroke="#31ABFF" stroke-miterlimit="10" stroke-opacity="0.64" width="157.956" height="127.534"/>
<path display="none" fill="#31ABFF" fill-opacity="0.29" stroke="#31ABFF" stroke-width="0.8243" stroke-miterlimit="10" stroke-opacity="0.64" d="
	M337.796,255.953l-51.053-3.023c-3.593-0.142-5.474,3.107-4.104,7.17l2.857,10.824c1.528,4.532,5.986,9.041,9.909,9.041h62.589
	c5.253,0,6.745-6.561,6.745-11.152c-0.12-25.828,4.735-52.385,14.563-78.246c0.954-2.52-0.953-5.045-4.298-5.702
	c-1.817-0.356-3.633-0.713-5.449-1.069c-3.336-0.655-7.05,0.767-8.259,3.236c-11.038,22.564-18.271,43.783-21.696,66.559
	C339.6,253.589,338.936,256.021,337.796,255.953z"/>
<path display="none" fill="#31ABFF" d="M304.629,298c-18.86,0,15.646,0-3.215,0c10.184-23-10.184-45,0-67c18.86,0-15.645,0,3.215,0
	C294.445,253,314.813,275,304.629,298z"/>
<polygon display="none" fill="#31ABFF" points="296.641,231.288 304.142,223.451 307.177,233.866 "/>
<path display="none" fill="#31ABFF" d="M317.488,298c-18.86,0,15.646,0-3.215,0c10.184-23-10.184-45,0-67c18.86,0-15.645,0,3.215,0
	C307.304,253,327.672,275,317.488,298z"/>
<polygon display="none" fill="#31ABFF" points="309.5,231.288 317,223.451 320.037,233.866 "/>
<path display="none" fill="#31ABFF" d="M330.99,298c-18.859,0,15.646,0-3.214,0c10.184-23-10.184-45,0-67c18.86,0-15.645,0,3.214,0
	C320.806,253,341.174,275,330.99,298z"/>
<polygon display="none" fill="#31ABFF" points="323.001,231.288 330.502,223.451 333.538,233.866 "/>
<g display="none">
	<g display="inline">
		<g display="none">
			<path display="inline" fill="#31ABFF" d="M425.129,219v-22h-40.44c-2.568,7-4.733,14-6.516,22H425.129z"/>
			<path display="inline" opacity="0.64" fill="none" stroke="#31ABFF" stroke-miterlimit="10" d="M425.629,218.5v-22h-40.94
				c-2.568,8-4.733,15-6.516,22H425.629z"/>
		</g>
		<g display="none">
			<path display="inline" fill="#31ABFF" d="M425.129,244v-21h-47.87c-1.63,7-2.88,14-3.73,21H425.129z"/>
			<path display="inline" opacity="0.64" fill="none" stroke="#31ABFF" stroke-miterlimit="10" d="M425.629,244.5v-22h-48.37
				c-1.63,7-2.88,15-3.73,22H425.629z"/>
		</g>
		<g display="none">
			<path display="inline" fill="#31ABFF" d="M372.116,270h53.013v-22H373.12c-0.671,7-1.003,13.871-0.971,20.759
				C372.149,269.155,372.131,270,372.116,270z"/>
			<path display="inline" opacity="0.64" fill="none" stroke="#31ABFF" stroke-miterlimit="10" d="M372.116,270.5h53.513v-22H373.12
				c-0.671,7-1.003,13.871-0.971,20.759C372.149,269.655,372.131,269.5,372.116,270.5z"/>
		</g>
	</g>
</g>
<rect x="533.601" y="175.708" display="none" fill="#31ABFF" fill-opacity="0.29" stroke="#31ABFF" stroke-miterlimit="10" stroke-opacity="0.64" width="157.955" height="127.534"/>
<path display="none" fill="#31ABFF" fill-opacity="0.29" stroke="#31ABFF" stroke-width="0.8243" stroke-miterlimit="10" stroke-opacity="0.64" d="
	M628.462,255.953l51.054-3.023c3.593-0.142,5.475,3.107,4.104,7.17l-2.858,10.824c-1.527,4.532-5.985,9.041-9.908,9.041h-62.589
	c-5.254,0-6.745-6.561-6.745-11.152c0.12-25.828-4.735-52.385-14.563-78.246c-0.953-2.52,0.953-5.045,4.299-5.702
	c1.817-0.356,3.634-0.713,5.448-1.069c3.337-0.655,7.051,0.767,8.26,3.236c11.037,22.564,18.271,43.783,21.695,66.559
	C626.659,253.589,627.323,256.021,628.462,255.953z"/>
<path display="none" fill="#31ABFF" d="M661.629,298c18.86,0-15.645,0,3.215,0c-10.184-23,10.184-45,0-67
	c-18.859,0,15.646,0-3.215,0C671.814,253,651.446,275,661.629,298z"/>
<polygon display="none" fill="#31ABFF" points="669.619,231.288 662.118,223.451 659.082,233.866 "/>
<path display="none" fill="#31ABFF" d="M648.771,298c18.859,0-15.646,0,3.214,0c-10.184-23,10.186-45,0-67
	c-18.86,0,15.646,0-3.214,0C658.955,253,638.586,275,648.771,298z"/>
<polygon display="none" fill="#31ABFF" points="656.759,231.288 649.258,223.451 646.222,233.866 "/>
<path display="none" fill="#31ABFF" d="M635.269,298c18.86,0-15.646,0,3.214,0c-10.184-23,10.185-45,0-67
	c-18.859,0,15.646,0-3.214,0C645.453,253,625.084,275,635.269,298z"/>
<polygon display="none" fill="#31ABFF" points="643.257,231.288 635.756,223.451 632.721,233.866 "/>
<path display="none" fill="#31ABFF" fill-opacity="0.29" stroke="#31ABFF" stroke-width="0.8243" stroke-miterlimit="10" stroke-opacity="0.64" d="
	M541.011,218.609v-21.841h40.559c2.568,7.243,4.733,14.529,6.516,21.841H541.011z"/>
<path display="none" fill="#31ABFF" fill-opacity="0.29" stroke="#31ABFF" stroke-width="0.8243" stroke-miterlimit="10" stroke-opacity="0.64" d="
	M541.011,244.35v-21.841h47.987c1.63,7.263,2.881,14.548,3.73,21.841H541.011z"/>
<path display="none" fill="#31ABFF" fill-opacity="0.29" stroke="#31ABFF" stroke-width="0.8243" stroke-miterlimit="10" stroke-opacity="0.64" d="
	M594.143,270.091h-53.132V248.25h52.128c0.67,6.894,1.002,13.792,0.971,20.679C594.11,269.325,594.127,269.707,594.143,270.091z"/>
<line display="none" fill="#31ABFF" stroke="#31ABFF" stroke-width="3" stroke-miterlimit="10" x1="667.129" y1="726.5" x2="363.129" y2="726.5"/>
<path display="none" fill="#31ABFF" d="M362.629,703.5h29v-68.552c-9.608,0.396-19.279,0.849-29,1.366V703.5z"/>
<path display="none" fill="#31ABFF" d="M401.629,703.5h29v-69.834c-9.582,0.234-19.253,0.529-29,0.89V703.5z"/>
<path display="none" fill="#31ABFF" d="M440.629,703.5h28v-70.443c-9.225,0.067-18.564,0.196-28,0.386V703.5z"/>
<path display="none" fill="#31ABFF" d="M479.629,633.008V703.5h29v-70.351c-8.34-0.098-16.598-0.149-24.75-0.149
	C482.468,633,481.047,633.005,479.629,633.008z"/>
<path display="none" fill="#31ABFF" d="M519.629,703.5h28v-69.553c-9.42-0.273-18.76-0.488-28-0.643V703.5z"/>
<path display="none" fill="#31ABFF" d="M558.629,703.5h29v-68.051c-9.73-0.447-19.404-0.835-29-1.159V703.5z"/>
<path display="none" fill="#31ABFF" d="M597.629,703.5h28v-66.005c-9.371-0.578-18.71-1.103-28-1.567V703.5z"/>
<path display="none" fill="#31ABFF" d="M636.629,703.5h29v-63.205c-9.684-0.759-19.356-1.46-29-2.099V703.5z"/>
</svg>
